<svg width="430" height="106" viewBox="0 0 430 106" fill="none" xmlns="http://www.w3.org/2000/svg">
<path d="M105.85 68.9484C105.022 71.7095 104.217 73.6133 103.877 74.3704C102.799 76.8197 98.9782 84.947 90.474 92.4954C83.7839 98.4294 77.3207 101.235 75.1096 102.126C74.4746 102.382 73.0459 102.949 70.9709 103.573C74.2819 105.065 77.9444 105.944 81.811 106C90.5987 105.967 99.3864 105.933 108.174 105.911C108.14 97.1268 108.095 88.3538 108.061 79.5696C108.083 75.7954 107.278 72.2105 105.85 68.9596L105.85 68.9484Z" fill="#F6A22C"/>
<path d="M55.0282 79.5251C54.9942 65.1742 67.0022 52.794 81.8676 52.9944C92.5036 53.1392 101.779 59.6855 105.85 68.9484C106.995 65.1186 108.174 59.6076 108.174 53.0278C108.174 38.1204 102.947 25.5509 92.4923 15.3306C82.0377 5.1102 69.202 -3.45441e-07 53.985 -2.69482e-07C44.1201 -2.20238e-07 35.0489 2.338 26.7827 7.00285C18.5166 11.6677 11.9853 18.1473 7.18893 26.4527C2.39253 34.7581 2.1841e-07 43.7538 2.66815e-07 53.4509C3.39396e-07 67.991 5.23861 80.3935 15.7045 90.6361C26.1704 100.879 39.0175 106 54.2345 106C61.3667 106 67.2176 104.697 70.9595 103.573C61.5822 99.3534 55.0396 90.0906 55.0169 79.5362L55.0282 79.5251Z" fill="#E24228"/>
<path d="M90.4739 92.4954C98.9782 84.947 102.788 76.8197 103.877 74.3704C104.205 73.6133 105.022 71.7206 105.85 68.9484C101.779 59.6967 92.5036 53.1392 81.8676 52.9944C67.0022 52.794 54.9942 65.1742 55.0282 79.525C55.0509 89.378 60.7544 98.0954 69.1339 102.649C69.7349 102.972 70.3472 103.284 70.9709 103.562C73.0459 102.938 74.4746 102.371 75.1096 102.114C77.3207 101.213 83.7839 98.4183 90.4739 92.4842L90.4739 92.4954Z" fill="#ED6D2E"/>
<path d="M419.214 1.25806L429 1.25806L429 104.72L419.214 104.72L419.214 1.25806Z" fill="#171321" stroke="#171321" stroke-width="1.2" stroke-miterlimit="10"/>
<path d="M388.1 67.3675L397.886 67.3675L397.886 104.72L388.1 104.72L388.1 67.3675Z" fill="#171321" stroke="#171321" stroke-width="1.2" stroke-miterlimit="10"/>
<path d="M358.256 26.23C369.969 26.23 379.675 30.3939 387.375 38.7216C394.382 46.3145 397.874 55.299 397.874 65.6864C397.874 76.0737 394.178 85.2253 386.774 93.0297C379.381 100.823 369.867 104.731 358.245 104.731C346.622 104.731 337.041 100.834 329.648 93.0297C322.255 85.2364 318.547 76.1183 318.547 65.6864C318.547 55.2545 322.05 46.3813 329.047 38.7884C336.746 30.4161 346.475 26.23 358.233 26.23L358.256 26.23ZM358.222 35.6265C350.092 35.6265 343.096 38.5768 337.256 44.4775C331.417 50.3781 328.491 57.5145 328.491 65.8868C328.491 71.2864 329.818 76.3187 332.494 80.9835C335.158 85.6484 338.753 89.2556 343.288 91.794C347.824 94.3323 352.802 95.6015 358.222 95.6015C363.642 95.6015 368.62 94.3323 373.155 91.794C377.691 89.2556 381.285 85.6484 383.95 80.9835C386.615 76.3187 387.953 71.2864 387.953 65.8868C387.953 57.5145 385.016 50.3781 379.154 44.4775C373.292 38.5768 366.307 35.6265 358.222 35.6265Z" fill="#171321" stroke="#171321" stroke-width="1.2" stroke-miterlimit="10"/>
<path d="M258.745 26.2412C270.458 26.2412 280.164 30.405 287.863 38.7327C294.871 46.3256 298.363 55.3102 298.363 65.6975C298.363 76.0849 294.667 85.2364 287.262 93.0409C279.869 100.834 270.356 104.742 258.733 104.742C247.111 104.742 237.53 100.845 230.137 93.0409C222.743 85.2476 219.036 76.1294 219.036 65.6975C219.036 55.2656 222.539 46.3924 229.536 38.7995C237.235 30.4273 246.964 26.2412 258.722 26.2412L258.745 26.2412ZM258.711 35.6377C250.581 35.6377 243.585 38.588 237.745 44.4886C231.905 50.3892 228.98 57.5257 228.98 65.8979C228.98 71.2976 230.307 76.3298 232.983 80.9947C235.647 85.6595 239.242 89.2667 243.777 91.8051C248.313 94.3435 253.291 95.6127 258.711 95.6127C264.131 95.6127 269.109 94.3435 273.644 91.8051C278.18 89.2667 281.774 85.6595 284.439 80.9947C287.104 76.3298 288.442 71.2976 288.442 65.8979C288.442 57.5257 285.505 50.3892 279.643 44.4886C273.78 38.588 266.795 35.6377 258.711 35.6377Z" fill="#171321" stroke="#171321" stroke-width="1.2" stroke-miterlimit="10"/>
<path d="M132.338 28.1561L142.123 28.1561L142.123 63.0144C142.123 71.5202 142.588 77.3763 143.529 80.5827C144.924 85.1585 147.6 88.7657 151.546 91.4265C155.481 94.0763 160.186 95.4011 165.652 95.4011C171.117 95.4011 175.743 94.1096 179.542 91.5267C183.34 88.9438 185.971 85.5482 187.411 81.3398C188.386 78.4563 188.885 72.3552 188.885 63.0255L188.885 28.1672L198.875 28.1672L198.875 64.8068C198.875 75.094 197.65 82.8539 195.201 88.0643C192.752 93.2747 189.078 97.3606 184.157 100.311C179.247 103.261 173.079 104.731 165.674 104.731C158.27 104.731 152.079 103.261 147.124 100.311C142.157 97.3606 138.461 93.2413 136.011 87.9641C133.562 82.6758 132.338 74.7378 132.338 64.1277L132.338 28.1783L132.338 28.1561Z" fill="#171321" stroke="#171321" stroke-width="1.2" stroke-miterlimit="10"/>
</svg>
